<?xml version="1.0" encoding="UTF-8"?>
<svg id="Layer_1" data-name="Layer 1" xmlns="http://www.w3.org/2000/svg" viewBox="0 0 360.52 523.39">
  <defs>
    <style>
      .cls-1, .cls-2 {
        fill: #fff;
      }

      .cls-2 {
        font-family: Satoshi-Black, Satoshi;
        font-size: 49.24px;
        font-weight: 800;
      }

      .cls-3 {
        letter-spacing: 0em;
      }

      .cls-4 {
        letter-spacing: 0em;
      }

      .cls-5 {
        letter-spacing: -.03em;
      }
    </style>
  </defs>
  <g>
    <path class="cls-1" d="M335.52,204.17c6.62,0,12,5.38,12,12v114.83c0,6.62-5.38,12-12,12h-22.63V204.17h22.63m0-13h-30.63c-2.76,0-5,2.24-5,5v154.83c0,2.76,2.24,5,5,5h30.63c13.81,0,25-11.19,25-25v-114.83c0-13.81-11.19-25-25-25h0Z"/>
    <path class="cls-1" d="M145.05,13c13.46,0,26.34,4.99,36.28,14.05,9.87,9.01,16.03,21.25,17.32,34.48l1.56,15.88,15.24-4.74c5.16-1.6,10.55-2.42,16.01-2.42,29.7,0,53.87,24.16,53.87,53.87,0,14.3-5.55,27.77-15.63,37.93l-3.77,3.8v247.88c0,6.62-5.38,12-12,12h-82.53V116.49l-15.58,3.16c-3.55,.72-7.17,1.08-10.77,1.08-1.25,0-2.6-.06-4.1-.18l-14.02-1.1V425.75H44.4c-6.62,0-12-5.38-12-12V165.87l-3.77-3.8c-10.08-10.16-15.63-23.63-15.63-37.93,0-29.7,24.16-53.87,53.87-53.87,3.14,0,6.37,.29,9.58,.87l13.46,2.41,1.73-13.57c3.41-26.78,26.37-46.98,53.41-46.98m0-13c-34.04,0-62.12,25.44-66.31,58.34-3.86-.69-7.82-1.07-11.88-1.07C29.94,57.27,0,87.2,0,124.13c0,18.37,7.41,35,19.4,47.09v242.53c0,13.81,11.19,25,25,25h90.53c2.76,0,5-2.24,5-5V133.52c1.69,.13,3.39,.22,5.12,.22,4.57,0,9.03-.47,13.35-1.34V433.75c0,2.76,2.24,5,5,5h90.53c13.81,0,25-11.19,25-25V171.22c11.99-12.09,19.4-28.72,19.4-47.09,0-36.93-29.94-66.87-66.87-66.87-6.92,0-13.59,1.05-19.87,3C208.28,26.44,179.75,0,145.05,0h0Z"/>
  </g>
  <text class="cls-2" transform="translate(22.48 510.79)"><tspan class="cls-4" x="0" y="0">T</tspan><tspan class="cls-5" x="31.12" y="0">W</tspan><tspan class="cls-3" x="82.29" y="0">O TUGS</tspan></text>
</svg>